name rise45.9887peak57.8056fall74.9286.mot
datacolumns 19
datarows 12
range 2.42666200000000 2.44499600000000
endheader
time	ground_force1_vx	ground_force1_vy	ground_force1_vz	ground_force1_px	ground_force1_py	ground_force1_pz	ground_force2_vx	ground_force2_vy	ground_force2_vz	ground_force2_px	ground_force2_py	ground_force2_pz	ground_torque1_x	ground_torque1_y	ground_torque1_z	ground_torque2_x	ground_torque2_y	ground_torque2_z	
2.42666200000000	13.04854100000000	712.91490999999996	42.84324000000000	0.24146700000000	0.00000000000000	0.10383500000000	0.00000000000000	0.00000000000000	0.00000000000000	0.00000000000000	0.00000000000000	0.00000000000000	0.00000000000000	18.76928000000000	0.00000000000000	0.00000000000000	0.00000000000000	0.00000000000000	
2.42832200000000	12.68208900000000	714.05257600000004	42.93076400000000	0.24084900000000	0.00000000000000	0.10380100000000	0.00000000000000	0.00000000000000	0.00000000000000	0.00000000000000	0.00000000000000	0.00000000000000	0.00000000000000	18.86299700000000	0.00000000000000	0.00000000000000	0.00000000000000	0.00000000000000	
2.42999800000000	12.30654600000000	715.20531400000004	43.01856300000000	0.24020500000000	0.00000000000000	0.10376800000000	0.00000000000000	0.00000000000000	0.00000000000000	0.00000000000000	0.00000000000000	0.00000000000000	0.00000000000000	18.95772600000000	0.00000000000000	0.00000000000000	0.00000000000000	0.00000000000000	
2.43166300000000	11.92181700000000	716.37132299999996	43.10642600000000	0.23953500000000	0.00000000000000	0.10373900000000	0.00000000000000	0.00000000000000	0.00000000000000	0.00000000000000	0.00000000000000	0.00000000000000	0.00000000000000	19.05333200000000	0.00000000000000	0.00000000000000	0.00000000000000	0.00000000000000	
2.43332900000000	11.52783700000000	717.54888100000005	43.19415800000000	0.23883800000000	0.00000000000000	0.10371100000000	0.00000000000000	0.00000000000000	0.00000000000000	0.00000000000000	0.00000000000000	0.00000000000000	0.00000000000000	19.14968800000000	0.00000000000000	0.00000000000000	0.00000000000000	0.00000000000000	
2.43499600000000	11.12457700000000	718.73634400000003	43.28157700000000	0.23811300000000	0.00000000000000	0.10368600000000	0.00000000000000	0.00000000000000	0.00000000000000	0.00000000000000	0.00000000000000	0.00000000000000	0.00000000000000	19.24667700000000	0.00000000000000	0.00000000000000	0.00000000000000	0.00000000000000	
2.43665800000000	10.71204000000000	719.93214599999999	43.36851900000000	0.23736200000000	0.00000000000000	0.10366400000000	0.00000000000000	0.00000000000000	0.00000000000000	0.00000000000000	0.00000000000000	0.00000000000000	0.00000000000000	19.34419300000000	0.00000000000000	0.00000000000000	0.00000000000000	0.00000000000000	
2.43832200000000	10.29026600000000	721.13480200000004	43.45483300000000	0.23658200000000	0.00000000000000	0.10364300000000	0.00000000000000	0.00000000000000	0.00000000000000	0.00000000000000	0.00000000000000	0.00000000000000	0.00000000000000	19.44213600000000	0.00000000000000	0.00000000000000	0.00000000000000	0.00000000000000	
2.43999100000000	9.85932500000000	722.34290999999996	43.54038500000000	0.23577600000000	0.00000000000000	0.10362500000000	0.00000000000000	0.00000000000000	0.00000000000000	0.00000000000000	0.00000000000000	0.00000000000000	0.00000000000000	19.54041600000000	0.00000000000000	0.00000000000000	0.00000000000000	0.00000000000000	
2.44166000000000	9.41932200000000	723.55515100000002	43.62505700000000	0.23494300000000	0.00000000000000	0.10361000000000	0.00000000000000	0.00000000000000	0.00000000000000	0.00000000000000	0.00000000000000	0.00000000000000	0.00000000000000	19.63895100000000	0.00000000000000	0.00000000000000	0.00000000000000	0.00000000000000	
2.44332700000000	8.97039700000000	724.77029100000004	43.70874700000000	0.23408500000000	0.00000000000000	0.10359700000000	0.00000000000000	0.00000000000000	0.00000000000000	0.00000000000000	0.00000000000000	0.00000000000000	0.00000000000000	19.73766900000000	0.00000000000000	0.00000000000000	0.00000000000000	0.00000000000000	
2.44499600000000	8.51271800000000	725.98717899999997	43.79136900000000	0.23320000000000	0.00000000000000	0.10358600000000	0.00000000000000	0.00000000000000	0.00000000000000	0.00000000000000	0.00000000000000	0.00000000000000	0.00000000000000	19.83650400000000	0.00000000000000	0.00000000000000	0.00000000000000	0.00000000000000	
